<?xml version="1.0" standalone="no"?>
<!DOCTYPE svg PUBLIC "-//W3C//DTD SVG 20010904//EN"
 "http://www.w3.org/TR/2001/REC-SVG-20010904/DTD/svg10.dtd">
<svg version="1.0" xmlns="http://www.w3.org/2000/svg"
 width="700.000000pt" height="700.000000pt" viewBox="0 0 700.000000 700.000000"
 preserveAspectRatio="xMidYMid meet">
<metadata>
Created by potrace 1.11, written by Peter Selinger 2001-2013
</metadata>
<g transform="translate(0.000000,700.000000) scale(0.100000,-0.100000)"
fill="#000000" stroke="none">
<path d="M435 6993 c-211 -37 -366 -177 -419 -379 -14 -52 -16 -208 -13 -1389
2 -1275 3 -1332 21 -1379 65 -169 198 -291 355 -329 28 -6 51 -14 51 -18 0 -3
-23 -11 -52 -18 -81 -18 -155 -60 -223 -126 -66 -64 -107 -132 -136 -230 -18
-56 -19 -130 -18 -1375 0 -1098 3 -1324 14 -1367 49 -179 189 -320 368 -368
78 -20 2656 -20 2734 0 178 48 323 192 364 361 14 57 29 79 29 43 1 -111 129
-293 251 -355 127 -64 0 -58 1463 -61 1289 -3 1332 -3 1400 16 182 50 312 183
360 368 14 53 16 214 16 1364 0 1435 3 1354 -62 1483 -59 116 -212 233 -330
252 -49 8 -48 21 1 29 121 20 270 134 329 251 65 130 62 43 59 1509 l-2 1330
-24 60 c-60 149 -157 246 -306 306 l-60 24 -1325 3 c-903 1 -1341 -1 -1376 -8
-85 -18 -186 -72 -251 -137 -75 -73 -138 -193 -145 -275 -3 -31 -18 -27 -18 5
0 28 -24 96 -56 158 -32 64 -133 163 -198 196 -127 63 -49 60 -1480 60 -716 0
-1310 -2 -1321 -4z m3081 -3109 c46 -179 192 -326 363 -367 28 -6 51 -15 51
-18 0 -4 -17 -9 -37 -13 -110 -17 -267 -132 -325 -238 -31 -56 -60 -141 -60
-175 0 -37 -10 -19 -29 55 -23 91 -61 156 -134 227 -66 65 -142 108 -224 128
-28 6 -51 15 -51 18 0 4 18 10 39 14 59 10 169 66 223 114 79 70 158 215 160
293 1 38 6 31 24 -38z"/>
</g>
</svg>
