<?xml version="1.0" encoding="UTF-8" standalone="no"?>
<!-- Generator: Adobe Illustrator 18.1.1, SVG Export Plug-In . SVG Version: 6.00 Build 0)  -->
<svg id="Capa_1" xmlns:rdf="http://www.w3.org/1999/02/22-rdf-syntax-ns#" xmlns="http://www.w3.org/2000/svg" xml:space="preserve" viewBox="0 0 400 400" height="100%" width="100%" version="1.1" y="0px" x="0px" xmlns:cc="http://creativecommons.org/ns#" xmlns:dc="http://purl.org/dc/elements/1.1/"><metadata id="metadata3213"><rdf:RDF><cc:Work rdf:about=""><dc:format>image/svg+xml</dc:format><dc:type rdf:resource="http://purl.org/dc/dcmitype/StillImage"/><dc:title/></cc:Work></rdf:RDF></metadata><defs id="defs3211">
</defs>
<path id="path3171" style="fill:#42b8dd;" d="m28.573,200,142.85,0c15.79,0,28.58-12.79,28.58-28.56v-142.78c0-15.772-12.79-28.556-28.57-28.556h-142.86c-15.783,0-28.573,12.784-28.573,28.556v142.78c0,15.771,12.8,28.555,28.572,28.555z"/><path id="path3173" style="fill:#333333;" d="M28.572,400,171.43,400c15.78,0,28.57-12.79,28.57-28.57v-142.86c0-15.782-12.79-28.572-28.57-28.572h-142.86c-15.781,0-28.572,12.79-28.572,28.57v142.86c0.00117,15.771,12.79,28.571,28.572,28.571z"/><path id="path3175" style="fill:#333333;" d="m228.57,200,142.86,0c15.78,0,28.57-12.79,28.57-28.57v-142.86c0-15.781-12.79-28.572-28.57-28.572h-142.86c-15.781,0-28.571,12.791-28.571,28.572v142.86c0,15.78,12.789,28.571,28.571,28.571z"/><path id="path3177" style="stroke-width:0;stroke-miterlimit:4;fill:#42b8dd;" d="m228.57,400,142.86,0c15.78,0,28.57-12.79,28.57-28.57v-142.86c0-15.782-12.79-28.572-28.57-28.572h-142.86c-15.772,0-28.572,12.79-28.572,28.57v142.86c0,15.771,12.8,28.571,28.572,28.571z"/>
<g id="g3179" transform="translate(3.9580834,24.773151)">
</g>
<g id="g3181" transform="translate(3.9580834,24.773151)">
</g>
<g id="g3183" transform="translate(3.9580834,24.773151)">
</g>
<g id="g3185" transform="translate(3.9580834,24.773151)">
</g>
<g id="g3187" transform="translate(3.9580834,24.773151)">
</g>
<g id="g3189" transform="translate(3.9580834,24.773151)">
</g>
<g id="g3191" transform="translate(3.9580834,24.773151)">
</g>
<g id="g3193" transform="translate(3.9580834,24.773151)">
</g>
<g id="g3195" transform="translate(3.9580834,24.773151)">
</g>
<g id="g3197" transform="translate(3.9580834,24.773151)">
</g>
<g id="g3199" transform="translate(3.9580834,24.773151)">
</g>
<g id="g3201" transform="translate(3.9580834,24.773151)">
</g>
<g id="g3203" transform="translate(3.9580834,24.773151)">
</g>
<g id="g3205" transform="translate(3.9580834,24.773151)">
</g>
<g id="g3207" transform="translate(3.9580834,24.773151)">
</g>
<path id="path3175-1" style="fill:#ffffff;" d="m252.99,289.55,94.022,0c5.7668,0,10.447,4.6807,10.447,10.447,0,5.7667-4.6807,10.447-10.447,10.447h-94.022c-5.7668,0-10.447-4.6807-10.447-10.447,0-5.7668,4.6807-10.447,10.447-10.447z"/><path id="path3173-7" style="fill:#ffffff;" d="m54.967,254.97c4.6742-4.6742,12.22-4.6742,16.883,0l28.142,28.152,28.152-28.152c4.6645-4.6645,12.229-4.6645,16.893,0,4.6645,4.6742,4.6645,12.229,0,16.893l-28.152,28.152,28.152,28.142c4.6645,4.6645,4.6535,12.22-0.01,16.883-4.6645,4.6645-12.22,4.6742-16.883,0l-28.149-28.13-28.141,28.14c-4.6645,4.6645-12.22,4.6645-16.883,0-4.6535-4.6535-4.6645-12.22,0-16.883l28.142-28.15-28.142-28.16c-4.6742-4.6535-4.6645-12.218,0-16.883z"/><path id="path3177-0" style="fill:#ffffff;" d="m300,151.66c-7.777,0-14.09-6.3025-14.09-14.09,0-7.7874,6.3117-14.09,14.09-14.09,7.7874,0,14.09,6.3025,14.09,14.09,0,7.7861-6.2932,14.09-14.09,14.09zm0-103.33c7.7874,0,14.09,6.3025,14.09,14.09,0,7.7874-6.3025,14.09-14.09,14.09-7.777,0-14.09-6.3025-14.09-14.09,0.001-7.7862,6.3129-14.09,14.09-14.09zm-42.268,43.444,84.538,0c5.185,0,9.3936,4.2086,9.3936,9.3936s-4.2086,9.3936-9.3936,9.3936h-84.538c-5.185,0-9.3936-4.2086-9.3936-9.3936s4.2086-9.3936,9.3936-9.3936z"/><path id="path3171-9" style="fill:#ffffff;" d="m52.836,89.176,36.276,0,0-36.276c0-6.0191,4.8824-10.892,10.883-10.892,6.0191,0,10.892,4.8824,10.892,10.892v36.276h36.276c6.0103,0,10.883,4.8724,10.883,10.883,0,6.0103-4.8724,10.883-10.883,10.883h-36.276v36.276c0,6.0103-4.8724,10.874-10.892,10.874-6.0014,0-10.883-4.8724-10.883-10.874v-36.276h-36.276c-6.0103,0-10.883-4.8724-10.883-10.883,0.01-6.0103,4.8735-10.883,10.883-10.883z"/></svg>
